# xmcd CD database file generated by Grip 3.3.1
# 
# Track frame offsets:
#       150
#       12271
#       30114
#       42666
#       53993
#       67597
#       79899
#       90013
#       102066
#       112207
#       123644
#       139332
#       158466
#       171274
#       187446
#       198055
#       209095
#       220156
#       231998
#       247553
# 
# Disc length: 3685 seconds
# 
# Revision: 1
# Processed by: cddbd v1.5.1PL2 Copyright (c) Steve Scherf et al.
# Submitted via: Grip 3.3.1
# 
DISCID=0e0e6314
DTITLE=Various Artist - Nothing but the Blues
DYEAR=1997
DGENRE=Blues
TTITLE0=Lightnin' Hopkins - Rock me mama
TTITLE1=Lightnin' Hopkins - Found my baby crying
TTITLE2=Elmore James - The sky is crying
TTITLE3=Elmore James - Rollin' and tumblin'
TTITLE4=T-Bone Walker - T-Bone shuffle
TTITLE5=T-Bone Walker - No worry blues
TTITLE6=Jimmy Reed - Ain't that loving you baby
TTITLE7=Jimmy Reed - Bright lights, big city
TTITLE8=John Lee Hooker - Dimples
TTITLE9=John Lee Hooker - Boom boom
TTITLE10=Albert King - Born under a bad sign
TTITLE11=Albert King - You upset me babe
TTITLE12=Big Bill Broonzy - Rockin' chair blues
TTITLE13=Big Bill Broonzy - The southern blues
TTITLE14=Arthur Big-Boy Crudup - That's allright
TTITLE15=Arthur Big-Boy Crudup - Rock me mama
TTITLE16=Robert Johnson - Love in vain
TTITLE17=Robert Johnson - Me and the devil blues
TTITLE18=Bessie Smith - Down hearted blues
TTITLE19=Bessie Smith - Empty bed blues (Parts 1 and 2)
EXTD=YEAR: 1997
EXTT0=
EXTT1=
EXTT2=
EXTT3=
EXTT4=
EXTT5=
EXTT6=
EXTT7=
EXTT8=
EXTT9=
EXTT10=
EXTT11=
EXTT12=
EXTT13=
EXTT14=
EXTT15=
EXTT16=
EXTT17=
EXTT18=
EXTT19=
PLAYORDER=
